<svg width="24" height="24" viewBox="0 0 24 24" fill="none" xmlns="http://www.w3.org/2000/svg">
<circle cx="12" cy="12" r="12" fill="#D40A57"/>
<g clip-path="url(#clip0_4015_822)">
<path fill-rule="evenodd" clip-rule="evenodd" d="M6.75 6.75L17.25 6.75L17.25 17.25L6.75 17.25L6.75 6.75ZM5.25 6.75C5.25 5.92157 5.92157 5.25 6.75 5.25L17.25 5.25C18.0784 5.25 18.75 5.92157 18.75 6.75L18.75 17.25C18.75 18.0784 18.0784 18.75 17.25 18.75L6.75 18.75C5.92157 18.75 5.25 18.0784 5.25 17.25L5.25 6.75ZM8.25 9.75L15.75 9.75L15.75 8.25L8.25 8.25L8.25 9.75ZM12.75 12.75L8.25 12.75L8.25 11.25L12.75 11.25L12.75 12.75ZM8.25 15.75L14.25 15.75L14.25 14.25L8.25 14.25L8.25 15.75Z" fill="#FEFEFE"/>
</g>
<defs>
<clipPath id="clip0_4015_822">
<rect width="18" height="18" fill="white" transform="translate(3 3)"/>
</clipPath>
</defs>
</svg>
